# xmcd
#
# Track frame offsets:
#	150
#	20567
#	37095
#	54147
#	64467
#	85200
#	98487
#	116140
#	133320
#	146567
#
# Disc length: 2206 seconds
#
# Revision: 0
# Processed by: cddbd v1.5.2PL0 Copyright (c) Steve Scherf et al.
# Submitted via: dBpowerAMP V4.0
#
DISCID=8e089c0a
DTITLE=St. Louis Jimmy Oden - Goin' Down Slow
DYEAR=1996
DGENRE=Blues
TTITLE0=Poor Boy
TTITLE1=Nothin' But The Blues
TTITLE2=Mother's Day Blues
TTITLE3=Some Sweet Day
TTITLE4=Dog House Blues
TTITLE5=My Heart Is Loaded With Trouble
TTITLE6=I'm St. Louis Bound
TTITLE7=Goin' Down Slow
TTITLE8=Sweet As She Can Be
TTITLE9=Monkey Faced Woman
EXTD=Prestige
EXTT0=
EXTT1=
EXTT2=
EXTT3=
EXTT4=
EXTT5=
EXTT6=
EXTT7=
EXTT8=
EXTT9=
PLAYORDER=
